<?xml version="1.0" encoding="utf-8"?>
<!-- Generator: Adobe Illustrator 17.0.0, SVG Export Plug-In . SVG Version: 6.00 Build 0)  -->
<!DOCTYPE svg PUBLIC "-//W3C//DTD SVG 1.1//EN" "http://www.w3.org/Graphics/SVG/1.1/DTD/svg11.dtd">
<svg version="1.1" id="Layer_1" xmlns="http://www.w3.org/2000/svg" xmlns:xlink="http://www.w3.org/1999/xlink" x="0px" y="0px"
	 width="584.483px" height="331.034px" viewBox="0 0 584.483 331.034" enable-background="new 0 0 584.483 331.034"
	 xml:space="preserve">
<g>
	<g>
		<path fill="#FFFFFF" d="M186.388,215.598v-24.004h6.844c4.45,0,7.316,1.011,7.316,5.158v4.383c0,3.607-3.203,5.192-6.507,5.192
			h-2.056v9.271H186.388z M191.984,202.888h0.877c1.955,0,2.09-1.079,2.09-3.911c0-2.832-0.135-3.945-2.09-3.945h-0.877V202.888z"/>
		<path fill="#FFFFFF" d="M201.963,215.598v-24.004h5.63c5.327,0,8.496,0.539,8.496,5.596c0,3.001-1.247,4.956-4.281,5.462v0.067
			c2.697,0.067,4.281,1.079,4.281,4.518v5.023c0,0.944,0.169,2.36,0.843,3.338h-5.63c-0.674-0.978-0.809-2.394-0.809-3.338v-5.091
			c0-1.686-1.011-2.529-2.023-2.529h-0.91v10.957H201.963z M207.559,201.203c2.529,0,2.933-0.843,2.933-3.102
			c0-2.225-0.371-3.068-2.933-3.068V201.203z"/>
		<path fill="#FFFFFF" d="M217.605,215.598v-24.004h11.597v3.641h-6.001v5.26H229v3.641h-5.799v7.821h6.001v3.641H217.605z"/>
		<path fill="#FFFFFF" d="M238.709,200.191v-3.372c0-1.18-0.371-1.854-1.483-1.854c-1.214,0-1.483,0.674-1.483,1.854
			c0,4.046,8.563,5.226,8.563,12.642c0,4.518-2.427,6.608-7.114,6.608c-3.574,0-7.046-1.214-7.046-5.36v-4.45h5.596v4.147
			c0,1.416,0.438,1.82,1.483,1.82c0.91,0,1.483-0.405,1.483-1.82c0-5.428-8.563-5.529-8.563-13.283c0-4.349,2.865-6.001,7.181-6.001
			c3.776,0,6.979,1.281,6.979,5.293v3.776H238.709z"/>
		<path fill="#FFFFFF" d="M254.352,200.191v-3.372c0-1.18-0.371-1.854-1.483-1.854c-1.214,0-1.483,0.674-1.483,1.854
			c0,4.046,8.563,5.226,8.563,12.642c0,4.518-2.427,6.608-7.114,6.608c-3.574,0-7.046-1.214-7.046-5.36v-4.45h5.596v4.147
			c0,1.416,0.438,1.82,1.483,1.82c0.91,0,1.483-0.405,1.483-1.82c0-5.428-8.563-5.529-8.563-13.283c0-4.349,2.865-6.001,7.181-6.001
			c3.776,0,6.979,1.281,6.979,5.293v3.776H254.352z"/>
		<path fill="#FFFFFF" d="M275.59,208.754c-0.135,5.091-1.888,7.316-7.113,7.316c-6.911,0-7.046-4.821-7.046-7.855v-16.62h5.596
			v17.295c0,1.922,0,3.338,1.45,3.338c1.517,0,1.517-1.416,1.517-3.338v-17.295h5.596V208.754z"/>
		<path fill="#FFFFFF" d="M277.006,215.598v-24.004h5.63c5.327,0,8.496,0.539,8.496,5.596c0,3.001-1.247,4.956-4.282,5.462v0.067
			c2.697,0.067,4.282,1.079,4.282,4.518v5.023c0,0.944,0.169,2.36,0.843,3.338h-5.63c-0.674-0.978-0.809-2.394-0.809-3.338v-5.091
			c0-1.686-1.011-2.529-2.023-2.529h-0.91v10.957H277.006z M282.602,201.203c2.529,0,2.933-0.843,2.933-3.102
			c0-2.225-0.371-3.068-2.933-3.068V201.203z"/>
		<path fill="#FFFFFF" d="M292.648,215.598v-24.004h11.597v3.641h-6.001v5.26h5.799v3.641h-5.799v7.821h6.001v3.641H292.648z"/>
		<path fill="#FFFFFF" d="M312.37,191.594h5.731l1.179,17.092h0.068l2.158-17.092h6.068l1.517,17.092h0.068l1.753-17.092h4.956
			l-3.135,24.004h-6.54l-2.158-18.509h-0.067l-1.989,18.509h-6.439L312.37,191.594z"/>
		<path fill="#FFFFFF" d="M345.644,191.594l3.102,24.004h-5.563l-0.64-5.9h-3.034l-0.91,5.9h-4.72l4.08-24.004H345.644z
			 M342.138,206.057l-0.978-10.687h-0.067l-0.978,10.687H342.138z"/>
		<path fill="#FFFFFF" d="M358.455,200.191v-3.372c0-1.18-0.371-1.854-1.483-1.854c-1.213,0-1.483,0.674-1.483,1.854
			c0,4.046,8.563,5.226,8.563,12.642c0,4.518-2.427,6.608-7.113,6.608c-3.574,0-7.047-1.214-7.047-5.36v-4.45h5.596v4.147
			c0,1.416,0.439,1.82,1.483,1.82c0.91,0,1.483-0.405,1.483-1.82c0-5.428-8.563-5.529-8.563-13.283c0-4.349,2.866-6.001,7.181-6.001
			c3.776,0,6.979,1.281,6.979,5.293v3.776H358.455z"/>
		<path fill="#FFFFFF" d="M365.534,215.598v-24.004h5.596v8.9h2.967v-8.9h5.596v24.004h-5.596v-11.462h-2.967v11.462H365.534z"/>
		<path fill="#FFFFFF" d="M381.075,215.598v-24.004h5.596v24.004H381.075z"/>
		<path fill="#FFFFFF" d="M387.851,191.594h7.754l3.574,17.463h0.067v-17.463h4.383v24.004h-7.181l-4.147-20.06h-0.067v20.06h-4.383
			V191.594z"/>
		<path fill="#FFFFFF" d="M415.496,214.384c-0.606,0.674-1.416,1.113-2.292,1.348c-0.843,0.27-1.753,0.337-2.562,0.337
			c-3.675,0-5.731-1.517-5.731-7.013v-10.923c0-5.495,3.372-7.013,7.08-7.013c4.518,0,7.046,1.821,7.114,6.541l-0.034,2.528h-5.596
			v-3.338c0-0.978-0.303-1.888-1.483-1.888c-1.18,0-1.483,0.91-1.483,1.888v13.485c0,0.978,0.27,1.888,1.483,1.888
			c1.18,0,1.483-0.91,1.483-1.888v-3.203h-2.124v-3.641h7.72v12.103h-3.27L415.496,214.384z"/>
	</g>
	<g>
		<path fill="none" d="M243.389,171.178l-1.341,5.812c0.859-0.149,1.712-0.295,2.591-0.46l-1.135-5.352H243.389z"/>
		<path fill="none" d="M318.841,156.835l-0.738,6.482c0.546-0.048,1.092-0.092,1.638-0.138l-0.784-6.344H318.841z"/>
		<path fill="none" d="M271.553,154.336v16.006c1.146-0.247,2.303-0.488,3.465-0.726l-3.349-15.28H271.553z"/>
		<path fill="none" d="M350.405,154.064l-0.77,7.938c0.553,0.004,1.105,0.008,1.656,0.015l-0.771-7.953H350.405z"/>
		<path fill="none" d="M404.025,168.19v0.675c1.718,0.489,3.405,1.01,5.069,1.557v-2.232H404.025z"/>
		<path fill="#FFFFFF" d="M196.103,153.847h6.682v-5.867h-22.926v5.867h6.682v20.756c1.924,0.783,5.087,1.878,9.562,2.823V153.847z"
			/>
		<path fill="#CCCCCC" d="M196.103,186.662v-9.235c-4.475-0.946-7.638-2.04-9.562-2.823v12.058H196.103z"/>
		<path fill="#FFFFFF" d="M243.389,171.178h0.115l1.135,5.352c2.822-0.532,5.747-1.151,8.779-1.865l-2.195-7.506l5.703-19.178
			h-8.698l-3.226,15.374h-0.115l-3.283-15.374h-10.426l5.702,17.929l-3.431,12.361c2.744-0.335,5.613-0.76,8.599-1.279
			L243.389,171.178z"/>
		<path fill="#CCCCCC" d="M239.817,186.662l2.231-9.672c-2.986,0.519-5.855,0.944-8.599,1.279l-2.329,8.392H239.817z"/>
		<path fill="#CCCCCC" d="M246.787,186.662h10.138l-3.508-11.997c-3.031,0.715-5.956,1.333-8.779,1.865L246.787,186.662z"/>
		<path fill="#FFFFFF" d="M271.553,154.336h0.115l3.349,15.28c2.21-0.454,4.445-0.892,6.705-1.313l-4.409-20.323h-13.249v24.058
			c2.454-0.584,4.951-1.15,7.488-1.696V154.336z"/>
		<path fill="#FFFFFF" d="M291.023,147.98h-7.488v19.983c2.469-0.447,4.971-0.867,7.488-1.272V147.98z"/>
		<path fill="#CCCCCC" d="M278.754,186.662h12.269v-19.971c-2.517,0.405-5.019,0.825-7.488,1.272v8.159h-0.115l-1.696-7.819
			c-2.26,0.421-4.495,0.859-6.705,1.313L278.754,186.662z"/>
		<path fill="#CCCCCC" d="M271.553,186.662v-16.32c-2.537,0.546-5.034,1.112-7.488,1.696v14.624H271.553z"/>
		<path fill="#FFFFFF" d="M339.175,147.98h-8.468l-1.581,14.538c2.696-0.152,5.392-0.269,8.085-0.356L339.175,147.98z"/>
		<path fill="#FFFFFF" d="M318.841,156.835h0.115l0.784,6.344c2.213-0.184,4.43-0.35,6.649-0.494l-1.384-14.705h-10.369
			l-2.124,15.871c1.859-0.192,3.722-0.37,5.59-0.534L318.841,156.835z"/>
		<path fill="#FFFFFF" d="M308.819,147.98h-9.793l2.405,17.181c2.839-0.378,5.696-0.728,8.569-1.045L308.819,147.98z"/>
		<path fill="#CCCCCC" d="M322.643,186.662h11.175l3.393-24.5c-2.693,0.087-5.389,0.204-8.085,0.356l-1.414,13.007h-0.114
			l-1.208-12.84c-2.219,0.143-4.436,0.309-6.649,0.494L322.643,186.662z"/>
		<path fill="#CCCCCC" d="M315.444,186.662l2.659-23.345c-1.868,0.164-3.731,0.342-5.59,0.534l-1.562,11.674h-0.115L310,164.116
			c-2.873,0.316-5.73,0.667-8.569,1.045l3.01,21.501H315.444z"/>
		<path fill="#FFFFFF" d="M349.635,162.002l0.77-7.938h0.115l0.771,7.953c2.968,0.04,5.918,0.134,8.85,0.268l-1.96-14.305h-13.133
			l-2.533,14.055C344.895,161.998,347.27,161.983,349.635,162.002z"/>
		<path fill="#CCCCCC" d="M346.142,186.662l1.555-9.508h5.184l1.094,9.508h9.505l-3.34-24.376c-2.932-0.134-5.881-0.227-8.85-0.268
			l0.899,9.269h-3.456l0.9-9.284c-2.365-0.019-4.74-0.004-7.119,0.033l-4.437,24.626H346.142z"/>
		<path fill="#FFFFFF" d="M377.301,156.4c0-1.901,0.462-2.988,2.535-2.988c1.901,0,2.534,1.087,2.534,2.988v5.432h9.562v-6.084
			c0-6.465-5.472-8.529-11.923-8.529c-7.373,0-12.27,2.662-12.27,9.67c0,2.395,0.54,4.334,1.409,5.971
			c5.338,0.439,10.578,1.051,15.68,1.854C381.102,161.848,377.301,159.723,377.301,156.4z"/>
		<path fill="#CCCCCC" d="M382.37,178.295c0,2.282-0.979,2.934-2.534,2.934c-1.786,0-2.535-0.653-2.535-2.934v-6.682h-9.562v7.172
			c0,6.682,5.934,8.637,12.039,8.637c8.007,0,12.154-3.368,12.154-10.647c0-5.861-3.518-9.303-7.103-12.06
			c-5.103-0.803-10.342-1.416-15.68-1.854C372.813,169.761,382.37,171.225,382.37,178.295z"/>
		<path fill="#FFFFFF" d="M404.025,168.19h5.069v2.232c3.306,1.086,6.494,2.295,9.562,3.619V147.98h-9.562v14.342h-5.069V147.98
			h-9.562v18.514c3.264,0.701,6.456,1.488,9.562,2.371V168.19z"/>
		<path fill="#CCCCCC" d="M409.094,186.662h9.562v-12.621c-3.068-1.324-6.256-2.533-9.562-3.619V186.662z"/>
		<path fill="#CCCCCC" d="M404.025,186.662v-17.797c-3.106-0.883-6.298-1.67-9.562-2.371v20.168H404.025z"/>
		<rect x="217.991" y="180.794" fill="#FFFFFF" width="8.493" height="5.867"/>
		<path fill="#FFFFFF" d="M212.037,170.058h-4.253v-7.286h4.253v-8.943h5.954v0.019h8.493v-5.867h-19.815v30.981
			c1.69,0.147,3.479,0.258,5.368,0.327V170.058z"/>
		<path fill="#FFFFFF" d="M212.037,186.662v-7.374c-1.889-0.069-3.678-0.18-5.368-0.327v7.701H212.037z"/>
		<path fill="#FFFFFF" d="M216.904,179.357v-10.386h4.984v-5.113h-4.984v-9.022h-3.781v9.022h-4.253v5.113h4.253v10.348
			C214.342,179.352,215.605,179.363,216.904,179.357z"/>
		<path fill="#FFFFFF" d="M216.904,186.715v-7.358c-1.299,0.006-2.562-0.006-3.781-0.039v7.396H216.904z"/>
	</g>
	<path fill="#FFFFFF" d="M174.123,163.316h2.997v13.36c0,0-13.788,15.329-9.591,30.815s29.174,33.47,92.018,24.778
		c0,0-56.949,11.889-86.723-5.795S160.135,183.017,174.123,163.316z"/>
	<path fill="#FFFFFF" d="M202.785,226.919c0,0,34.517,4.117,67.831-3.863h13.553C284.169,223.056,235.655,234.773,202.785,226.919z"
		/>
	<path fill="#FFFFFF" d="M256.222,118.067c0,0,68.029-26.688,120.464-15.385c0,0-50.296-7.222-109.894,15.385H256.222z"/>
	<path fill="#FFFFFF" d="M319.452,97.448c0,0,67.387-13.78,95.122,11.53l-7.117,4.169
		C407.456,113.147,389.245,86.982,319.452,97.448z"/>
	<polygon fill="#FFFFFF" points="398.726,126.536 416.559,116.937 416.559,118.592 	"/>
	<polygon fill="#FFFFFF" points="398.892,127.901 427.234,122.233 426.199,124.053 	"/>
	<polygon fill="#FFFFFF" points="401.167,129.06 420.324,129.722 419.331,131.377 	"/>
	<polygon fill="#FFFFFF" points="427.234,138.245 427.482,136.549 399.843,130.425 	"/>
	<polygon fill="#FFFFFF" points="399.264,131.377 415.814,138.866 415.152,140.934 	"/>
	<path fill="#FFFFFF" d="M183.19,143.598h-3.491c0,0,0.385-5.195,1.347-6.294c0.962-1.099,1.979-1.677,4.48-2.556
		c0,0-4.095-2.144-5.827,2.831h-2.556c0,0-2.721-3.876-5.195-4.865c-2.474-0.99-3.766-3.436-3.298-6.294
		c0.467-2.859,4.645-4.728,11.214-4.37c6.569,0.357,9.95,0.962,12.424,1.292c2.474,0.33,3.133,0.055,4.205,0.742
		c1.072,0.687,1.457,1.897,1.457,1.897s1.099-0.192,1.264,0.385s0.577,0.77,1.072,0.77s1.072-0.22,1.154-1.237
		c0.082-1.017,0.33-1.512,0.33-1.512h2.886l0.852,0.742l1.347-0.852l0.852,0.77l1.539-0.907l0.88,1.099l1.154-1.044l1.127,0.962
		l1.209-1.099l1.319,0.935l1.209-0.825l1.044,0.962l1.264-1.017l1.099,0.99l1.319-0.99l1.044,1.237l1.044-1.237l1.099,0.99
		l1.594-1.237l0.77,1.264l1.237-0.907l1.292,0.77l0.907-0.77l1.182,0.742l1.072-0.797l1.237,0.77l1.017-0.825l1.072,0.742
		l1.017-0.687l0.632,0.55h3.491l0.687-0.577l0.522,0.742h0.852l0.825-0.715l0.687,0.687h22.016c0,0,4.288-0.082,4.233,3.051
		l0.001,1.071c0.055,3.133-4.233,3.051-4.233,3.051h-22.016l-0.687,0.687l-0.825-0.715h-0.852l-0.522,0.742l-0.687-0.577h-3.491
		l-0.632,0.55l-1.017-0.687l-1.072,0.742l-1.017-0.825l-1.237,0.77l-1.072-0.797l-1.182,0.742l-0.907-0.77l-1.292,0.77l-1.237-0.907
		l-0.77,1.264l-1.594-1.237l-1.099,0.99l-1.044-1.237l-1.044,1.237l-1.319-0.99l-1.099,0.99l-1.264-1.017l-1.044,0.962l-1.209-0.825
		l-1.319,0.935l-1.209-1.099l-1.127,0.962l-1.154-1.044l-0.88,1.099l-1.539-0.907l-0.852,0.77l-1.347-0.852l-0.852,0.742h-2.886
		l-1.215-2.803c0,0-1.271,1.395-2.419,1.829c0,0-1.519,2.171-2.202,2.698c0,0,0.899,7.876-0.62,9.147h-1.364
		c0,0-0.155-7.132-0.899-8.31c-0.744-1.178-2.264-1.395-2.264-1.395s-1.147,4.124-6.667,4.868L183.19,143.598z"/>
	<path fill="#FFFFFF" d="M384.206,126.18c0,0,3.735-1.129,6.475-1.113c2.739,0.016,4.482,1.074,4.296,3.627
		c-0.187,2.552-2.801,3.984-6.101,3.3c-3.299-0.685-4.669-1.992-4.669-1.992H267.913v-3.655L384.206,126.18z"/>
</g>
<g>
	<g>
		<path fill="#FFFFFF" d="M186.388,215.598v-24.004h6.844c4.45,0,7.316,1.011,7.316,5.158v4.383c0,3.607-3.203,5.192-6.507,5.192
			h-2.056v9.271H186.388z M191.984,202.888h0.877c1.955,0,2.09-1.079,2.09-3.911c0-2.832-0.135-3.945-2.09-3.945h-0.877V202.888z"/>
		<path fill="#FFFFFF" d="M201.963,215.598v-24.004h5.63c5.327,0,8.496,0.539,8.496,5.596c0,3.001-1.247,4.956-4.281,5.462v0.067
			c2.697,0.067,4.281,1.079,4.281,4.518v5.023c0,0.944,0.169,2.36,0.843,3.338h-5.63c-0.674-0.978-0.809-2.394-0.809-3.338v-5.091
			c0-1.686-1.011-2.529-2.023-2.529h-0.91v10.957H201.963z M207.559,201.203c2.529,0,2.933-0.843,2.933-3.102
			c0-2.225-0.371-3.068-2.933-3.068V201.203z"/>
		<path fill="#FFFFFF" d="M217.605,215.598v-24.004h11.597v3.641h-6.001v5.26H229v3.641h-5.799v7.821h6.001v3.641H217.605z"/>
		<path fill="#FFFFFF" d="M238.709,200.191v-3.372c0-1.18-0.371-1.854-1.483-1.854c-1.214,0-1.483,0.674-1.483,1.854
			c0,4.046,8.563,5.226,8.563,12.642c0,4.518-2.427,6.608-7.114,6.608c-3.574,0-7.046-1.214-7.046-5.36v-4.45h5.596v4.147
			c0,1.416,0.438,1.82,1.483,1.82c0.91,0,1.483-0.405,1.483-1.82c0-5.428-8.563-5.529-8.563-13.283c0-4.349,2.865-6.001,7.181-6.001
			c3.776,0,6.979,1.281,6.979,5.293v3.776H238.709z"/>
		<path fill="#FFFFFF" d="M254.352,200.191v-3.372c0-1.18-0.371-1.854-1.483-1.854c-1.214,0-1.483,0.674-1.483,1.854
			c0,4.046,8.563,5.226,8.563,12.642c0,4.518-2.427,6.608-7.114,6.608c-3.574,0-7.046-1.214-7.046-5.36v-4.45h5.596v4.147
			c0,1.416,0.438,1.82,1.483,1.82c0.91,0,1.483-0.405,1.483-1.82c0-5.428-8.563-5.529-8.563-13.283c0-4.349,2.865-6.001,7.181-6.001
			c3.776,0,6.979,1.281,6.979,5.293v3.776H254.352z"/>
		<path fill="#FFFFFF" d="M275.59,208.754c-0.135,5.091-1.888,7.316-7.113,7.316c-6.911,0-7.046-4.821-7.046-7.855v-16.62h5.596
			v17.295c0,1.922,0,3.338,1.45,3.338c1.517,0,1.517-1.416,1.517-3.338v-17.295h5.596V208.754z"/>
		<path fill="#FFFFFF" d="M277.006,215.598v-24.004h5.63c5.327,0,8.496,0.539,8.496,5.596c0,3.001-1.247,4.956-4.282,5.462v0.067
			c2.697,0.067,4.282,1.079,4.282,4.518v5.023c0,0.944,0.169,2.36,0.843,3.338h-5.63c-0.674-0.978-0.809-2.394-0.809-3.338v-5.091
			c0-1.686-1.011-2.529-2.023-2.529h-0.91v10.957H277.006z M282.602,201.203c2.529,0,2.933-0.843,2.933-3.102
			c0-2.225-0.371-3.068-2.933-3.068V201.203z"/>
		<path fill="#FFFFFF" d="M292.648,215.598v-24.004h11.597v3.641h-6.001v5.26h5.799v3.641h-5.799v7.821h6.001v3.641H292.648z"/>
		<path fill="#FFFFFF" d="M312.37,191.594h5.731l1.179,17.092h0.068l2.158-17.092h6.068l1.517,17.092h0.068l1.753-17.092h4.956
			l-3.135,24.004h-6.54l-2.158-18.509h-0.067l-1.989,18.509h-6.439L312.37,191.594z"/>
		<path fill="#FFFFFF" d="M345.644,191.594l3.102,24.004h-5.563l-0.64-5.9h-3.034l-0.91,5.9h-4.72l4.08-24.004H345.644z
			 M342.138,206.057l-0.978-10.687h-0.067l-0.978,10.687H342.138z"/>
		<path fill="#FFFFFF" d="M358.455,200.191v-3.372c0-1.18-0.371-1.854-1.483-1.854c-1.213,0-1.483,0.674-1.483,1.854
			c0,4.046,8.563,5.226,8.563,12.642c0,4.518-2.427,6.608-7.113,6.608c-3.574,0-7.047-1.214-7.047-5.36v-4.45h5.596v4.147
			c0,1.416,0.439,1.82,1.483,1.82c0.91,0,1.483-0.405,1.483-1.82c0-5.428-8.563-5.529-8.563-13.283c0-4.349,2.866-6.001,7.181-6.001
			c3.776,0,6.979,1.281,6.979,5.293v3.776H358.455z"/>
		<path fill="#FFFFFF" d="M365.534,215.598v-24.004h5.596v8.9h2.967v-8.9h5.596v24.004h-5.596v-11.462h-2.967v11.462H365.534z"/>
		<path fill="#FFFFFF" d="M381.075,215.598v-24.004h5.596v24.004H381.075z"/>
		<path fill="#FFFFFF" d="M387.851,191.594h7.754l3.574,17.463h0.067v-17.463h4.383v24.004h-7.181l-4.147-20.06h-0.067v20.06h-4.383
			V191.594z"/>
		<path fill="#FFFFFF" d="M415.496,214.384c-0.606,0.674-1.416,1.113-2.292,1.348c-0.843,0.27-1.753,0.337-2.562,0.337
			c-3.675,0-5.731-1.517-5.731-7.013v-10.923c0-5.495,3.372-7.013,7.08-7.013c4.518,0,7.046,1.821,7.114,6.541l-0.034,2.528h-5.596
			v-3.338c0-0.978-0.303-1.888-1.483-1.888c-1.18,0-1.483,0.91-1.483,1.888v13.485c0,0.978,0.27,1.888,1.483,1.888
			c1.18,0,1.483-0.91,1.483-1.888v-3.203h-2.124v-3.641h7.72v12.103h-3.27L415.496,214.384z"/>
	</g>
	<g>
		<path fill="none" d="M243.389,171.178l-1.341,5.812c0.859-0.149,1.712-0.295,2.591-0.46l-1.135-5.352H243.389z"/>
		<path fill="none" d="M318.841,156.835l-0.738,6.482c0.546-0.048,1.092-0.092,1.638-0.138l-0.784-6.344H318.841z"/>
		<path fill="none" d="M271.553,154.336v16.006c1.146-0.247,2.303-0.488,3.465-0.726l-3.349-15.28H271.553z"/>
		<path fill="none" d="M350.405,154.064l-0.77,7.938c0.553,0.004,1.105,0.008,1.656,0.015l-0.771-7.953H350.405z"/>
		<path fill="none" d="M404.025,168.19v0.675c1.718,0.489,3.405,1.01,5.069,1.557v-2.232H404.025z"/>
		<path fill="#FFFFFF" d="M196.103,153.847h6.682v-5.867h-22.926v5.867h6.682v20.756c1.924,0.783,5.087,1.878,9.562,2.823V153.847z"
			/>
		<path fill="#CCCCCC" d="M196.103,186.662v-9.235c-4.475-0.946-7.638-2.04-9.562-2.823v12.058H196.103z"/>
		<path fill="#FFFFFF" d="M243.389,171.178h0.115l1.135,5.352c2.822-0.532,5.747-1.151,8.779-1.865l-2.195-7.506l5.703-19.178
			h-8.698l-3.226,15.374h-0.115l-3.283-15.374h-10.426l5.702,17.929l-3.431,12.361c2.744-0.335,5.613-0.76,8.599-1.279
			L243.389,171.178z"/>
		<path fill="#CCCCCC" d="M239.817,186.662l2.231-9.672c-2.986,0.519-5.855,0.944-8.599,1.279l-2.329,8.392H239.817z"/>
		<path fill="#CCCCCC" d="M246.787,186.662h10.138l-3.508-11.997c-3.031,0.715-5.956,1.333-8.779,1.865L246.787,186.662z"/>
		<path fill="#FFFFFF" d="M271.553,154.336h0.115l3.349,15.28c2.21-0.454,4.445-0.892,6.705-1.313l-4.409-20.323h-13.249v24.058
			c2.454-0.584,4.951-1.15,7.488-1.696V154.336z"/>
		<path fill="#FFFFFF" d="M291.023,147.98h-7.488v19.983c2.469-0.447,4.971-0.867,7.488-1.272V147.98z"/>
		<path fill="#CCCCCC" d="M278.754,186.662h12.269v-19.971c-2.517,0.405-5.019,0.825-7.488,1.272v8.159h-0.115l-1.696-7.819
			c-2.26,0.421-4.495,0.859-6.705,1.313L278.754,186.662z"/>
		<path fill="#CCCCCC" d="M271.553,186.662v-16.32c-2.537,0.546-5.034,1.112-7.488,1.696v14.624H271.553z"/>
		<path fill="#FFFFFF" d="M339.175,147.98h-8.468l-1.581,14.538c2.696-0.152,5.392-0.269,8.085-0.356L339.175,147.98z"/>
		<path fill="#FFFFFF" d="M318.841,156.835h0.115l0.784,6.344c2.213-0.184,4.43-0.35,6.649-0.494l-1.384-14.705h-10.369
			l-2.124,15.871c1.859-0.192,3.722-0.37,5.59-0.534L318.841,156.835z"/>
		<path fill="#FFFFFF" d="M308.819,147.98h-9.793l2.405,17.181c2.839-0.378,5.696-0.728,8.569-1.045L308.819,147.98z"/>
		<path fill="#CCCCCC" d="M322.643,186.662h11.175l3.393-24.5c-2.693,0.087-5.389,0.204-8.085,0.356l-1.414,13.007h-0.114
			l-1.208-12.84c-2.219,0.143-4.436,0.309-6.649,0.494L322.643,186.662z"/>
		<path fill="#CCCCCC" d="M315.444,186.662l2.659-23.345c-1.868,0.164-3.731,0.342-5.59,0.534l-1.562,11.674h-0.115L310,164.116
			c-2.873,0.316-5.73,0.667-8.569,1.045l3.01,21.501H315.444z"/>
		<path fill="#FFFFFF" d="M349.635,162.002l0.77-7.938h0.115l0.771,7.953c2.968,0.04,5.918,0.134,8.85,0.268l-1.96-14.305h-13.133
			l-2.533,14.055C344.895,161.998,347.27,161.983,349.635,162.002z"/>
		<path fill="#CCCCCC" d="M346.142,186.662l1.555-9.508h5.184l1.094,9.508h9.505l-3.34-24.376c-2.932-0.134-5.881-0.227-8.85-0.268
			l0.899,9.269h-3.456l0.9-9.284c-2.365-0.019-4.74-0.004-7.119,0.033l-4.437,24.626H346.142z"/>
		<path fill="#FFFFFF" d="M377.301,156.4c0-1.901,0.462-2.988,2.535-2.988c1.901,0,2.534,1.087,2.534,2.988v5.432h9.562v-6.084
			c0-6.465-5.472-8.529-11.923-8.529c-7.373,0-12.27,2.662-12.27,9.67c0,2.395,0.54,4.334,1.409,5.971
			c5.338,0.439,10.578,1.051,15.68,1.854C381.102,161.848,377.301,159.723,377.301,156.4z"/>
		<path fill="#CCCCCC" d="M382.37,178.295c0,2.282-0.979,2.934-2.534,2.934c-1.786,0-2.535-0.653-2.535-2.934v-6.682h-9.562v7.172
			c0,6.682,5.934,8.637,12.039,8.637c8.007,0,12.154-3.368,12.154-10.647c0-5.861-3.518-9.303-7.103-12.06
			c-5.103-0.803-10.342-1.416-15.68-1.854C372.813,169.761,382.37,171.225,382.37,178.295z"/>
		<path fill="#FFFFFF" d="M404.025,168.19h5.069v2.232c3.306,1.086,6.494,2.295,9.562,3.619V147.98h-9.562v14.342h-5.069V147.98
			h-9.562v18.514c3.264,0.701,6.456,1.488,9.562,2.371V168.19z"/>
		<path fill="#CCCCCC" d="M409.094,186.662h9.562v-12.621c-3.068-1.324-6.256-2.533-9.562-3.619V186.662z"/>
		<path fill="#CCCCCC" d="M404.025,186.662v-17.797c-3.106-0.883-6.298-1.67-9.562-2.371v20.168H404.025z"/>
		<rect x="217.991" y="180.794" fill="#FFFFFF" width="8.493" height="5.867"/>
		<path fill="#FFFFFF" d="M212.037,170.058h-4.253v-7.286h4.253v-8.943h5.954v0.019h8.493v-5.867h-19.815v30.981
			c1.69,0.147,3.479,0.258,5.368,0.327V170.058z"/>
		<path fill="#FFFFFF" d="M212.037,186.662v-7.374c-1.889-0.069-3.678-0.18-5.368-0.327v7.701H212.037z"/>
		<path fill="#FFFFFF" d="M216.904,179.357v-10.386h4.984v-5.113h-4.984v-9.022h-3.781v9.022h-4.253v5.113h4.253v10.348
			C214.342,179.352,215.605,179.363,216.904,179.357z"/>
		<path fill="#FFFFFF" d="M216.904,186.715v-7.358c-1.299,0.006-2.562-0.006-3.781-0.039v7.396H216.904z"/>
	</g>
	<path fill="#FFFFFF" d="M174.123,163.316h2.997v13.36c0,0-13.788,15.329-9.591,30.815s29.174,33.47,92.018,24.778
		c0,0-56.949,11.889-86.723-5.795S160.135,183.017,174.123,163.316z"/>
	<path fill="#FFFFFF" d="M202.785,226.919c0,0,34.517,4.117,67.831-3.863h13.553C284.169,223.056,235.655,234.773,202.785,226.919z"
		/>
	<path fill="#FFFFFF" d="M256.222,118.067c0,0,68.029-26.688,120.464-15.385c0,0-50.296-7.222-109.894,15.385H256.222z"/>
	<path fill="#FFFFFF" d="M319.452,97.448c0,0,67.387-13.78,95.122,11.53l-7.117,4.169
		C407.456,113.147,389.245,86.982,319.452,97.448z"/>
	<polygon fill="#FFFFFF" points="398.726,126.536 416.559,116.937 416.559,118.592 	"/>
	<polygon fill="#FFFFFF" points="398.892,127.901 427.234,122.233 426.199,124.053 	"/>
	<polygon fill="#FFFFFF" points="401.167,129.06 420.324,129.722 419.331,131.377 	"/>
	<polygon fill="#FFFFFF" points="427.234,138.245 427.482,136.549 399.843,130.425 	"/>
	<polygon fill="#FFFFFF" points="399.264,131.377 415.814,138.866 415.152,140.934 	"/>
	<path fill="#FFFFFF" d="M183.19,143.598h-3.491c0,0,0.385-5.195,1.347-6.294c0.962-1.099,1.979-1.677,4.48-2.556
		c0,0-4.095-2.144-5.827,2.831h-2.556c0,0-2.721-3.876-5.195-4.865c-2.474-0.99-3.766-3.436-3.298-6.294
		c0.467-2.859,4.645-4.728,11.214-4.37c6.569,0.357,9.95,0.962,12.424,1.292c2.474,0.33,3.133,0.055,4.205,0.742
		c1.072,0.687,1.457,1.897,1.457,1.897s1.099-0.192,1.264,0.385s0.577,0.77,1.072,0.77s1.072-0.22,1.154-1.237
		c0.082-1.017,0.33-1.512,0.33-1.512h2.886l0.852,0.742l1.347-0.852l0.852,0.77l1.539-0.907l0.88,1.099l1.154-1.044l1.127,0.962
		l1.209-1.099l1.319,0.935l1.209-0.825l1.044,0.962l1.264-1.017l1.099,0.99l1.319-0.99l1.044,1.237l1.044-1.237l1.099,0.99
		l1.594-1.237l0.77,1.264l1.237-0.907l1.292,0.77l0.907-0.77l1.182,0.742l1.072-0.797l1.237,0.77l1.017-0.825l1.072,0.742
		l1.017-0.687l0.632,0.55h3.491l0.687-0.577l0.522,0.742h0.852l0.825-0.715l0.687,0.687h22.016c0,0,4.288-0.082,4.233,3.051
		l0.001,1.071c0.055,3.133-4.233,3.051-4.233,3.051h-22.016l-0.687,0.687l-0.825-0.715h-0.852l-0.522,0.742l-0.687-0.577h-3.491
		l-0.632,0.55l-1.017-0.687l-1.072,0.742l-1.017-0.825l-1.237,0.77l-1.072-0.797l-1.182,0.742l-0.907-0.77l-1.292,0.77l-1.237-0.907
		l-0.77,1.264l-1.594-1.237l-1.099,0.99l-1.044-1.237l-1.044,1.237l-1.319-0.99l-1.099,0.99l-1.264-1.017l-1.044,0.962l-1.209-0.825
		l-1.319,0.935l-1.209-1.099l-1.127,0.962l-1.154-1.044l-0.88,1.099l-1.539-0.907l-0.852,0.77l-1.347-0.852l-0.852,0.742h-2.886
		l-1.215-2.803c0,0-1.271,1.395-2.419,1.829c0,0-1.519,2.171-2.202,2.698c0,0,0.899,7.876-0.62,9.147h-1.364
		c0,0-0.155-7.132-0.899-8.31c-0.744-1.178-2.264-1.395-2.264-1.395s-1.147,4.124-6.667,4.868L183.19,143.598z"/>
	<path fill="#FFFFFF" d="M384.206,126.18c0,0,3.735-1.129,6.475-1.113c2.739,0.016,4.482,1.074,4.296,3.627
		c-0.187,2.552-2.801,3.984-6.101,3.3c-3.299-0.685-4.669-1.992-4.669-1.992H267.913v-3.655L384.206,126.18z"/>
</g>
</svg>
